<?xml version="1.0" encoding="UTF-8"?>
<svg xmlns="http://www.w3.org/2000/svg" version="1.1" width="180" height="38" style="shape-rendering:geometricPrecision; text-rendering:geometricPrecision; image-rendering:optimizeQuality; fill-rule:evenodd; clip-rule:evenodd" xmlns:xlink="http://www.w3.org/1999/xlink">
<g><path style="opacity:1" fill="#fdfefe" d="M -0.5,-0.5 C 359.167,-0.5 718.833,-0.5 1078.5,-0.5C 1078.5,74.1667 1078.5,148.833 1078.5,223.5C 718.833,223.5 359.167,223.5 -0.5,223.5C -0.5,148.833 -0.5,74.1667 -0.5,-0.5 Z"/></g>
<g><path style="opacity:1" fill="#0c7bff" d="M 73.5,12.5 C 115.934,11.7983 144.768,31.1316 160,70.5C 167.653,102.178 160.32,129.845 138,153.5C 132.824,158.331 126.99,161.998 120.5,164.5C 119.447,159.195 118.947,153.861 119,148.5C 142.325,129.864 150.991,105.864 145,76.5C 139.294,58.8031 128.461,45.3031 112.5,36C 110.246,34.8495 107.913,34.5162 105.5,35C 100.788,40.0434 96.4546,45.3767 92.5,51C 85.144,51.8313 77.8107,51.6646 70.5,50.5C 66.5,45.5 62.5,40.5 58.5,35.5C 56.5787,34.359 54.5787,34.1923 52.5,35C 20.9088,53.7559 10.0755,80.9226 20,116.5C 24.9931,129.821 33.3264,140.487 45,148.5C 44.8096,153.504 44.1429,158.504 43,163.5C 42.6924,164.308 42.1924,164.975 41.5,165.5C 10.0193,145.53 -3.48072,116.863 1,79.5C 10.668,41.3273 34.8346,18.9939 73.5,12.5 Z"/></g>
<g><path style="opacity:1" fill="#020202" d="M 428.5,14.5 C 428.333,44.8352 428.5,75.1685 429,105.5C 429.717,104.956 430.217,104.289 430.5,103.5C 445.692,85.7206 464.359,80.8873 486.5,89C 512.678,103.196 522.844,125.03 517,154.5C 507.371,183.132 487.538,195.966 457.5,193C 446.501,190.172 437.501,184.339 430.5,175.5C 430.44,174.957 430.107,174.624 429.5,174.5C 428.505,180.128 428.171,185.794 428.5,191.5C 423.167,191.5 417.833,191.5 412.5,191.5C 412.5,132.5 412.5,73.5 412.5,14.5C 417.833,14.5 423.167,14.5 428.5,14.5 Z"/></g>
<g><path style="opacity:1" fill="#7e7e7e" d="M 428.5,14.5 C 429.167,44.1667 429.833,73.8333 430.5,103.5C 430.217,104.289 429.717,104.956 429,105.5C 428.5,75.1685 428.333,44.8352 428.5,14.5 Z"/></g>
<g><path style="opacity:1" fill="#000000" d="M 943.5,22.5 C 946.167,22.5 948.833,22.5 951.5,22.5C 951.5,78.8333 951.5,135.167 951.5,191.5C 948.833,191.5 946.167,191.5 943.5,191.5C 943.5,135.167 943.5,78.8333 943.5,22.5 Z"/></g>
<g><path style="opacity:1" fill="#181818" d="M 943.5,22.5 C 946.287,21.5233 949.287,21.19 952.5,21.5C 952.832,78.3358 952.499,135.002 951.5,191.5C 951.5,135.167 951.5,78.8333 951.5,22.5C 948.833,22.5 946.167,22.5 943.5,22.5 Z"/></g>
<g><path style="opacity:1" fill="#080808" d="M 528.5,28.5 C 532.351,27.9709 535.851,28.6375 539,30.5C 558.667,80.8333 578.333,131.167 598,181.5C 618.019,130.626 638.186,79.7922 658.5,29C 661.833,28.3333 665.167,28.3333 668.5,29C 646.28,82.8293 624.946,136.996 604.5,191.5C 600.445,191.824 596.445,191.491 592.5,190.5C 570.593,136.692 549.26,82.6924 528.5,28.5 Z"/></g>
<g><path style="opacity:1" fill="#848484" d="M 250.5,31.5 C 245.167,31.5 239.833,31.5 234.5,31.5C 234.832,73.3367 234.499,115.003 233.5,156.5C 233.5,114.5 233.5,72.5 233.5,30.5C 239.358,30.1778 245.025,30.5111 250.5,31.5 Z"/></g>
<g><path style="opacity:1" fill="#020202" d="M 250.5,31.5 C 250.667,73.5013 250.5,115.501 250,157.5C 247.671,178.163 236.171,189.997 215.5,193C 208.167,193.667 200.833,193.667 193.5,193C 188.585,192.695 184.085,191.195 180,188.5C 179.17,182.472 179.336,176.472 180.5,170.5C 190.226,176.812 200.892,178.979 212.5,177C 224.421,175.066 231.421,168.233 233.5,156.5C 234.499,115.003 234.832,73.3367 234.5,31.5C 239.833,31.5 245.167,31.5 250.5,31.5 Z"/></g>
<g><path style="opacity:1" fill="#050505" d="M 997.5,37.5 C 998.495,49.989 998.829,62.6557 998.5,75.5C 1015.5,75.5 1032.5,75.5 1049.5,75.5C 1049.5,78.1667 1049.5,80.8333 1049.5,83.5C 1032.5,83.5 1015.5,83.5 998.5,83.5C 998.333,110.835 998.5,138.169 999,165.5C 1001.42,181.967 1010.92,189.134 1027.5,187C 1038.54,184.463 1044.87,177.63 1046.5,166.5C 1049.5,167.167 1052.5,167.833 1055.5,168.5C 1049.72,188.418 1036.39,197.584 1015.5,196C 1001.67,192.833 993.167,184.333 990,170.5C 989.5,141.502 989.333,112.502 989.5,83.5C 981.167,83.5 972.833,83.5 964.5,83.5C 964.5,80.8333 964.5,78.1667 964.5,75.5C 972.833,75.5 981.167,75.5 989.5,75.5C 989.168,63.4815 989.501,51.4815 990.5,39.5C 992.729,38.4229 995.063,37.7563 997.5,37.5 Z"/></g>
<g><path style="opacity:1" fill="#077aff" d="M 78.5,55.5 C 79.8321,56.8304 80.6655,58.4971 81,60.5C 81.8317,111.668 81.665,162.668 80.5,213.5C 68.8206,202.821 57.8206,191.487 47.5,179.5C 55.471,138.125 64.1377,96.9585 73.5,56C 75.1341,55.5065 76.8008,55.3398 78.5,55.5 Z"/></g>
<g><path style="opacity:1" fill="#0c6ee2" d="M 78.5,55.5 C 82.7675,55.203 86.9341,55.5363 91,56.5C 99.359,97.1282 107.526,137.795 115.5,178.5C 115.333,179.833 115.167,181.167 115,182.5C 103.973,193.527 92.973,204.527 82,215.5C 81.2828,214.956 80.7828,214.289 80.5,213.5C 81.665,162.668 81.8317,111.668 81,60.5C 80.6655,58.4971 79.8321,56.8304 78.5,55.5 Z"/></g>
<g><path style="opacity:1" fill="#0a0a0a" d="M 771.5,181.5 C 771.666,175.491 771.499,169.491 771,163.5C 769.961,164.244 769.461,165.244 769.5,166.5C 762.515,180.347 751.515,189.513 736.5,194C 725.873,195.478 715.206,195.812 704.5,195C 679.229,188.286 671.063,172.786 680,148.5C 688.335,138.906 698.835,132.74 711.5,130C 730.486,126.536 749.486,123.203 768.5,120C 770.949,118.137 771.949,115.637 771.5,112.5C 770.354,95.1842 761.354,84.3509 744.5,80C 723.228,75.1056 706.061,81.2723 693,98.5C 690.103,103.088 688.603,108.088 688.5,113.5C 685.5,112.833 682.5,112.167 679.5,111.5C 683.976,88.8576 697.643,75.3576 720.5,71C 737.298,68.0356 752.632,71.3689 766.5,81C 773.777,88.3859 778.277,97.2193 780,107.5C 780.028,132.896 780.694,158.229 782,183.5C 784.707,187.035 788.207,188.202 792.5,187C 796.241,185.262 799.408,182.762 802,179.5C 804.018,181.35 805.851,183.35 807.5,185.5C 800.977,194.288 792.31,197.454 781.5,195C 776.053,192.054 772.719,187.554 771.5,181.5 Z"/></g>
<g><path style="opacity:1" fill="#8a8a8a" d="M 997.5,37.5 C 997.56,36.9569 997.893,36.6236 998.5,36.5C 999.499,49.1492 999.832,61.8158 999.5,74.5C 1016.5,74.5 1033.5,74.5 1050.5,74.5C 1050.81,77.7131 1050.48,80.7131 1049.5,83.5C 1049.5,80.8333 1049.5,78.1667 1049.5,75.5C 1032.5,75.5 1015.5,75.5 998.5,75.5C 998.829,62.6557 998.495,49.989 997.5,37.5 Z"/></g>
<g><path style="opacity:1" fill="#040404" d="M 818.5,75.5 C 821.5,75.5 824.5,75.5 827.5,75.5C 827.059,104.533 827.559,133.533 829,162.5C 834.31,178.839 845.644,187.172 863,187.5C 889.672,187.477 905.339,174.477 910,148.5C 910.5,124.169 910.667,99.8356 910.5,75.5C 913.5,75.5 916.5,75.5 919.5,75.5C 919.5,114.167 919.5,152.833 919.5,191.5C 916.5,191.5 913.5,191.5 910.5,191.5C 910.666,184.159 910.5,176.826 910,169.5C 901.926,184.303 889.426,192.803 872.5,195C 853.738,198.938 838.238,193.771 826,179.5C 821.959,172.333 819.626,164.666 819,156.5C 818.5,129.502 818.333,102.502 818.5,75.5 Z"/></g>
<g><path style="opacity:1" fill="#040404" d="M 321.5,84.5 C 352.946,83.4528 373.446,97.7861 383,127.5C 386.515,160.294 372.681,181.794 341.5,192C 313.798,196.065 293.298,185.899 280,161.5C 268.681,122.133 282.514,96.4659 321.5,84.5 Z"/></g>
<g><path style="opacity:1" fill="#fcfcfc" d="M 320.5,101.5 C 343.653,99.1488 359.153,108.816 367,130.5C 369.608,153.794 359.774,168.961 337.5,176C 312.912,178.294 297.745,167.461 292,143.5C 291.309,122.539 300.809,108.539 320.5,101.5 Z"/></g>
<g><path style="opacity:1" fill="#fcfcfc" d="M 458.5,101.5 C 481.209,100.429 495.709,110.762 502,132.5C 503.904,156.211 493.404,171.044 470.5,177C 450.188,177.924 436.688,168.757 430,149.5C 426.456,125.568 435.956,109.568 458.5,101.5 Z"/></g>
<g><path style="opacity:1" fill="#fcfcfc" d="M 764.5,129.5 C 766.5,129.5 768.5,129.5 770.5,129.5C 773.133,158.759 760.466,177.593 732.5,186C 721.29,188.475 710.29,187.808 699.5,184C 684.988,176.777 681.488,165.944 689,151.5C 694.108,146.026 700.275,142.193 707.5,140C 714.37,137.866 721.37,136.199 728.5,135C 740.704,133.568 752.704,131.734 764.5,129.5 Z"/></g>
<g><path style="opacity:1" fill="#7f7f7f" d="M 771.5,181.5 C 770.833,176.5 770.167,171.5 769.5,166.5C 769.461,165.244 769.961,164.244 771,163.5C 771.499,169.491 771.666,175.491 771.5,181.5 Z"/></g>
<g><path style="opacity:1" fill="#7d7d7d" d="M 430.5,175.5 C 429.833,180.833 429.167,186.167 428.5,191.5C 428.171,185.794 428.505,180.128 429.5,174.5C 430.107,174.624 430.44,174.957 430.5,175.5 Z"/></g>
</svg>
